<?xml version="1.0" encoding="UTF-8" standalone="no"?>
<!-- Created with Inkscape (http://www.inkscape.org/) -->

<svg
   width="105mm"
   height="74mm"
   viewBox="0 0 105 74"
   version="1.1"
   id="svg2561"
   inkscape:version="1.2.2 (b0a8486541, 2022-12-01)"
   sodipodi:docname="caiac_logo.svg"
   xmlns:inkscape="http://www.inkscape.org/namespaces/inkscape"
   xmlns:sodipodi="http://sodipodi.sourceforge.net/DTD/sodipodi-0.dtd"
   xmlns="http://www.w3.org/2000/svg"
   xmlns:svg="http://www.w3.org/2000/svg">
  <sodipodi:namedview
     id="namedview2563"
     pagecolor="#505050"
     bordercolor="#eeeeee"
     borderopacity="1"
     inkscape:showpageshadow="0"
     inkscape:pageopacity="0"
     inkscape:pagecheckerboard="0"
     inkscape:deskcolor="#505050"
     inkscape:document-units="mm"
     showgrid="false"
     inkscape:zoom="1.5447638"
     inkscape:cx="259.91029"
     inkscape:cy="264.11805"
     inkscape:window-width="1920"
     inkscape:window-height="1011"
     inkscape:window-x="0"
     inkscape:window-y="32"
     inkscape:window-maximized="1"
     inkscape:current-layer="layer1" />
  <defs
     id="defs2558" />
  <g
     inkscape:label="Layer 1"
     inkscape:groupmode="layer"
     id="layer1">
    <g
       style="fill:#023a87;fill-opacity:1"
       id="g2523"
       transform="matrix(0.35277777,0,0,0.35277777,-51.969238,-100.46892)">
      <g
         id="use2521"
         transform="translate(149.38695,413.875)">
        <path
           style="stroke:none"
           d="m 33.390625,-11.375 c 1.914063,0 3.773437,-0.285156 5.578125,-0.859375 1.8125,-0.582031 3.144531,-1.144531 4,-1.6875 l 1.265625,-0.875 5.359375,10.71875 c -0.179688,0.136719 -0.421875,0.3125 -0.734375,0.53125 -0.3125,0.21875 -1.042969,0.632813 -2.1875,1.234375 -1.136719,0.605469 -2.351563,1.132812 -3.640625,1.578125 C 41.738281,-0.285156 40.039062,0.113281 37.9375,0.46875 35.84375,0.820312 33.679688,1 31.453125,1 c -5.136719,0 -10,-1.257812 -14.59375,-3.78125 C 12.265625,-5.300781 8.5625,-8.769531 5.75,-13.1875 2.945312,-17.601562 1.546875,-22.375 1.546875,-27.5 c 0,-3.882812 0.820313,-7.609375 2.46875,-11.171875 1.644531,-3.570313 3.835937,-6.628906 6.578125,-9.171875 2.75,-2.539062 5.953125,-4.570312 9.609375,-6.09375 3.664063,-1.519531 7.414063,-2.28125 11.25,-2.28125 3.570313,0 6.863281,0.429688 9.875,1.28125 3.007813,0.84375 5.140625,1.6875 6.390625,2.53125 l 1.875,1.28125 -5.359375,10.703125 c -0.3125,-0.269531 -0.78125,-0.59375 -1.40625,-0.96875 -0.625,-0.375 -1.875,-0.875 -3.75,-1.5 -1.875,-0.625 -3.773437,-0.9375 -5.6875,-0.9375 -3.03125,0 -5.757813,0.492187 -8.171875,1.46875 -2.40625,0.980469 -4.3125,2.273437 -5.71875,3.875 -1.398438,1.605469 -2.464844,3.335937 -3.203125,5.1875 -0.742187,1.855469 -1.109375,3.742187 -1.109375,5.65625 0,4.199219 1.570312,7.960937 4.71875,11.28125 3.144531,3.324219 7.640625,4.984375 13.484375,4.984375 z m 0,0"
           id="path2659" />
      </g>
    </g>
    <g
       style="fill:#023a87;fill-opacity:1"
       id="g2539"
       transform="matrix(0.35277777,0,0,0.35277777,-53.005779,-100.47168)">
      <g
         id="use2537"
         transform="translate(288.76682,413.875)">
        <path
           style="stroke:none"
           d="M 16.59375,-55.203125 V 0 H 4.015625 v -55.203125 z m 0,0"
           id="path2663" />
      </g>
    </g>
    <g
       style="fill:#023a87;fill-opacity:1"
       id="g2547"
       transform="matrix(0.35277777,0,0,0.35277777,-54.094224,-100.47168)">
      <g
         id="use2545"
         transform="translate(327.64331,413.875)">
        <path
           style="stroke:none"
           d="M 32.0625,-55.203125 54.34375,0 H 40.828125 l -4.09375,-11.046875 h -21 L 11.640625,0 H -1.875 l 22.28125,-55.203125 z m 0.390625,33.125 -6.15625,-16.0625 h -0.125 l -6.15625,16.0625 z m 0,0"
           id="path2651" />
      </g>
    </g>
    <g
       style="fill:#023a87;fill-opacity:1"
       id="g2551"
       transform="matrix(0.35277777,0,0,0.35277777,-51.969238,-100.62508)">
      <g
         id="use2549"
         transform="translate(442.87961,359.09888)">
        <path
           style="stroke:none"
           d="m -33.390625,11.375 c -1.914063,0 -3.773437,0.285156 -5.578125,0.859375 -1.8125,0.582031 -3.144531,1.144531 -4,1.6875 l -1.265625,0.875 -5.359375,-10.71875 c 0.179688,-0.136719 0.421875,-0.3125 0.734375,-0.53125 0.3125,-0.21875 1.042969,-0.632813 2.1875,-1.234375 1.136719,-0.605469 2.351563,-1.132812 3.640625,-1.578125 1.292969,-0.449219 2.992188,-0.847656 5.09375,-1.203125 C -35.84375,-0.820312 -33.679688,-1 -31.453125,-1 c 5.136719,0 10,1.257812 14.59375,3.78125 4.59375,2.519531 8.296875,5.988281 11.109375,10.40625 2.804688,4.414062 4.203125,9.1875 4.203125,14.3125 0,3.882812 -0.820313,7.609375 -2.46875,11.171875 -1.644531,3.570313 -3.835937,6.628906 -6.578125,9.171875 -2.75,2.539062 -5.953125,4.570312 -9.609375,6.09375 -3.664063,1.519531 -7.414063,2.28125 -11.25,2.28125 -3.570313,0 -6.863281,-0.429688 -9.875,-1.28125 -3.007813,-0.84375 -5.140625,-1.6875 -6.390625,-2.53125 l -1.875,-1.28125 5.359375,-10.703125 c 0.3125,0.269531 0.78125,0.59375 1.40625,0.96875 0.625,0.375 1.875,0.875 3.75,1.5 1.875,0.625 3.773437,0.9375 5.6875,0.9375 3.03125,0 5.757813,-0.492187 8.171875,-1.46875 2.40625,-0.980469 4.3125,-2.273437 5.71875,-3.875 1.398438,-1.605469 2.464844,-3.335937 3.203125,-5.1875 0.742187,-1.855469 1.109375,-3.742187 1.109375,-5.65625 0,-4.199219 -1.570312,-7.960937 -4.71875,-11.28125 C -23.050781,13.035156 -27.546875,11.375 -33.390625,11.375 Z m 0,0"
           id="path2667" />
      </g>
    </g>
    <g
       id="use2529"
       style="fill:#023a87;fill-opacity:1"
       transform="matrix(0.35277777,0,0,0.35277777,24.999128,45.534218)">
      <path
         style="stroke:none"
         d="M 32.0625,-55.203125 54.34375,0 H 40.828125 l -4.09375,-11.046875 h -21 L 11.640625,0 H -1.875 l 22.28125,-55.203125 z m 0.390625,33.125 -6.15625,-16.0625 h -0.125 l -6.15625,16.0625 z m 0,0"
         id="path2655" />
    </g>
  </g>
</svg>
